<svg width="24" height="20" viewBox="0 0 24 20" xmlns="http://www.w3.org/2000/svg">
    <path d="M3.08417 4.43062C2.86268 4.4769 2.70731 4.56285 2.52549 4.74467C2.29408 4.97607 2.20152 5.2174 2.22136 5.55459C2.25111 6.0207 1.96681 5.70996 6.78995 10.5397C9.18995 12.9463 11.2263 14.9662 11.309 15.029C11.5238 15.1843 11.7123 15.2471 11.99 15.2505C12.4693 15.2538 12.109 15.581 17.1106 10.5728C22.0891 5.58764 21.7288 5.98103 21.7255 5.505C21.7255 5.37607 21.7023 5.21078 21.6726 5.13145C21.5106 4.68186 21.0511 4.38434 20.5817 4.4174C20.1519 4.44715 20.4263 4.19591 16.0164 8.60252L11.9833 12.629L8.06598 8.71161C5.91061 6.55624 4.0726 4.73475 3.98003 4.66202C3.71227 4.45376 3.38499 4.36781 3.08417 4.43062Z" fill="currentColor"/>
    <path d="M9.69602 16.8994C9.70593 16.9292 9.72577 17.0184 9.73569 17.1044C9.76213 17.2664 9.7985 17.2994 9.83486 17.1903C9.84478 17.154 9.89106 17.1143 9.93734 17.1044C10.0464 17.078 10.0365 17.0548 9.87453 16.9589C9.6861 16.8465 9.67288 16.8432 9.69602 16.8994Z" fill="currentColor"/>
</svg>
