<svg width="60" height="60" viewBox="0 0 60 60" fill="none" xmlns="http://www.w3.org/2000/svg">
<path d="M51.6385 47.0654C52.6974 47.9005 54.2421 47.724 54.9884 46.6007C58.7191 40.9854 60.4632 34.2528 59.8946 27.4876C59.2576 19.9082 55.7655 12.8538 50.1247 7.75145C44.4839 2.64913 37.1156 -0.120108 29.5105 0.00399352C21.9055 0.128095 14.6314 3.13627 9.16013 8.41992C3.68881 13.7036 0.428687 20.8682 0.0393322 28.4643C-0.350023 36.0604 2.16046 43.5208 7.06287 49.3362C11.9653 55.1516 18.8936 58.8877 26.4461 59.7888C33.1874 60.593 39.9767 59.0849 45.7188 55.5524C46.8674 54.8457 47.0977 53.3081 46.3001 52.2208V52.2208C45.5025 51.1334 43.9795 50.91 42.8199 51.5984C38.0857 54.4085 32.536 55.5971 27.0246 54.9396C20.7016 54.1852 14.9011 51.0572 10.7967 46.1885C6.69235 41.3198 4.59053 35.0738 4.91651 28.7143C5.24248 22.3547 7.9719 16.3564 12.5526 11.9329C17.1332 7.50931 23.2231 4.99082 29.5902 4.88692C35.9573 4.78302 42.1261 7.10147 46.8486 11.3732C51.5712 15.6449 54.4949 21.551 55.0282 27.8965C55.493 33.4275 54.1116 38.9323 51.1379 43.5656C50.4095 44.7005 50.5797 46.2303 51.6385 47.0654V47.0654Z" fill="black"/>
<rect x="17.4805" y="22.4727" width="21.6923" height="5.37842" rx="2.68921" transform="rotate(44.7024 17.4805 22.4727)" fill="black"/>
<rect x="26.332" y="34.6172" width="7.21825" height="5.8725" rx="2.93625" transform="rotate(0.266545 26.332 34.6172)" fill="black"/>
<rect x="46.3789" y="26.3164" width="21.6923" height="5.37842" rx="2.68921" transform="rotate(135.465 46.3789 26.3164)" fill="black"/>
</svg>
