<svg width="147" height="147" viewBox="0 0 147 147" fill="none" xmlns="http://www.w3.org/2000/svg">
<path d="M26.5 18.3252C22.5 20.4395 22 22.1512 22 33.3272C22 43.1943 22.2 44.4026 24.3 46.7183C26.5 49.2354 26.7 49.3361 43.5 49.5375L60.5 49.8396L60.8 56.5854C61.1 63.9354 61.2 63.7341 55.4 63.432C53.7 63.3313 49.8 64.2375 46.7 65.2444C38.9 68.0635 33.9 68.7683 30.7 67.5601C28.2 66.5533 28 66.1505 28 60.4115C28 57.0889 27.6 54.3704 27.1 54.3704C26.6 54.3704 26 68.7683 25.8 87.7978C25.4 123.541 25.6 125.655 30.3 130.69C35.9 136.731 44.2 138.442 51.5 135.019C55.5 133.207 66 122.937 66 120.923C66 118.809 64.4 119.816 59.5 124.951C50.4 134.314 42.9 136.227 35.2 131.193C30.3 127.971 27.7 123.038 27.8 117.198C27.8 111.761 29.1 109.445 35.2 103.102L40.1 97.967L45.6 99.4772C50.4 100.887 51 101.29 51 103.706C51 106.727 54.7 110.754 57.4 110.754C58.4 110.754 62.9 107.23 67.6 102.901C72.6 98.269 77.5 94.6443 79.8 93.9396C84 92.6307 90 92.2279 90 93.3354C90 93.7382 85.2 98.9738 79.3 104.914C72.3 111.962 68.9 116.09 69.5 116.694C70.2 117.399 76.6 111.559 87.9 100.182C101.6 86.2875 105.9 82.4615 108.6 81.9581C111.1 81.5553 113.9 79.2396 119.5 73.3998C130.2 62.0224 130.2 62.1231 114.6 46.6176C103.2 35.1396 102 34.2334 98.5 34.2334C95.1 34.2334 93.9 35.0389 87.4 41.7848C83.3 45.9128 79.8 50.5444 79.4 52.0546C78.8 54.6724 65.5 69.4731 63.8 69.4731C63.3 69.4731 63 64.9423 63 59.3039C63 50.645 63.3 48.732 65 46.6176C66.7 44.4026 67 42.4896 67 34.032C67 23.0574 65.6 18.8286 61.8 17.7211C57.8 16.7142 28.6 17.1169 26.5 18.3252ZM63.1 22.0505C64.7 23.9635 65 26.0779 65 33.5286C65 41.4827 64.7 42.993 62.8 45.0067C60.7 47.2217 60.1 47.3224 44.9 47.3224C24.2 47.3224 24.8 47.7252 25.2 32.7231C25.6 18.5265 24.9 19.03 45.8 19.332C60.6 19.6341 61.3 19.7348 63.1 22.0505ZM111.4 47.1211C117.3 53.1622 122.7 58.8005 123.2 59.8074C125.2 63.3313 122.7 67.1574 113.1 75.8163C110 78.6354 108.2 79.5416 106.6 79.1389C105.4 78.8368 99.4 73.5005 93.2 67.2581C85 58.9012 82 55.2765 82 53.4642C82 50.343 95.5 36.2471 98.5 36.2471C99.7 36.2471 104.8 40.5765 111.4 47.1211ZM91.8 69.7752L103 81.1526L98.8 85.2807C95.1 88.7039 93.7 89.4087 89 90.0128C86 90.3149 82.6 90.7176 81.6 90.8183C80.2 91.0197 79.5 90.3149 78.9 88.2005C77.9 84.3745 75.2 81.5553 72.6 81.5553C71.3 81.5553 67.3 84.7772 62.3 89.6101C56 95.8526 53.5 97.6649 51.3 97.6649C46.9 97.6649 43.9 96.5574 44.2 95.0471C44.5 93.6375 78.9 58.3978 80 58.3978C80.3 58.3978 85.6 63.5327 91.8 69.7752ZM60.8 69.6745C61 71.6882 60.1 73.5005 56.9 77.0245C52.3 81.9581 51 82.5622 51 79.5416C51 77.1252 48.2 75.5142 43.8 75.5142C38.7 75.5142 38 76.8231 38 87.093V96.2553L33.5 100.685C30.2 103.907 28.9 104.713 28.5 103.605C28.2 102.8 28.1 95.1478 28.2 86.5896L28.5 70.9834L35.5 70.2786C39.4 69.8759 44.3 68.869 46.5 68.0635C48.7 67.1574 52.8 66.5533 55.5 66.7546C60.1 66.956 60.5 67.1574 60.8 69.6745ZM47.4 79.1389C49.9 81.656 49.3 84.6765 45.3 88.8046C43.3 90.919 41.2 92.6307 40.8 92.6307C40.4 92.6307 40 89.7108 40 86.0861C40 81.0519 40.4 79.4409 41.8 78.6354C44.2 77.1252 45.6 77.3265 47.4 79.1389ZM74.8 85.7841C77.4 88.4019 75.9 91.2211 67 100.182L58 109.244L55.3 106.424L52.6 103.706L56 99.9807C70.5 84.1731 72 82.9649 74.8 85.7841Z" fill="black"/>
<path d="M33 33.2261C33 40.1734 33.3 42.3884 34.3 41.9857C36 41.4823 36 24.9699 34.3 24.3658C33.3 24.0638 33 26.2789 33 33.2261Z" fill="black"/>
<path d="M44 33.2274C44 39.0671 44.4 42.1884 45 41.7856C45.6 41.4836 46 37.5569 46 33.2274C46 28.898 45.6 24.9713 45 24.6692C44.4 24.2665 44 27.3877 44 33.2274Z" fill="black"/>
<path d="M54 33.2274C54 38.5637 54.4 42.2891 55 42.2891C55.6 42.2891 56 38.5637 56 33.2274C56 27.8911 55.6 24.1658 55 24.1658C54.4 24.1658 54 27.8911 54 33.2274Z" fill="black"/>
<path d="M94.7033 49.1345C89.6033 54.3701 87.7033 57.3906 89.7033 57.3906C91.0033 57.3906 102.003 45.9125 102.003 44.6036C102.003 42.2879 100.503 43.1941 94.7033 49.1345Z" fill="black"/>
<path d="M101.697 57.2889C95.7966 63.4307 95.0966 64.4375 97.2966 64.4375C98.5966 64.4375 109.997 53.3622 109.997 52.0533C109.997 50.0396 106.797 51.9526 101.697 57.2889Z" fill="black"/>
<path d="M109.703 64.236C104.603 69.4716 102.703 72.4922 104.703 72.4922C106.003 72.4922 117.003 61.0141 117.003 59.7052C117.003 57.3894 115.503 58.2956 109.703 64.236Z" fill="black"/>
</svg>
