<svg width="147" height="147" viewBox="0 0 147 147" fill="none" xmlns="http://www.w3.org/2000/svg">
<path d="M62 9.5C61.3 10.4 60.5 13.3 60.2 16C59.8 20.5 59.5 20.9 56.6 21.5C54.9 21.9 51.1 23.3 48.3 24.7L43 27.2L39 23.6C36.8 21.6 34.7 20 34.4 20C33 20 19 34.5 19 36C19 36.9 20.3 38.9 22 40.5C23.7 42.1 25 43.9 25 44.5C25 45.2 23.5 49.2 21.6 53.6L18.1 61.5L13.3 61.8C6.9 62.2 6 63.6 6 73.5C6 83.4 6.9 84.8 13.3 85.2L18.1 85.5L21.6 93.4C23.5 97.8 25 101.8 25 102.5C25 103.1 23.7 104.9 22 106.5C20.4 108.1 19 110.1 19 111C19 111.9 22.4 115.9 26.5 119.9L33.9 127.1L37 125.4C38.6 124.4 40 123.2 40 122.8C40 122.4 40.9 121.6 42.1 121C43.7 120.1 44.8 120.3 47.6 121.9C49.5 123.1 53.1 124.5 55.4 125.1C59.7 126.2 59.8 126.3 60.2 131.1C60.9 138.5 61.7 139 72.9 139C79.1 139 83 138.6 83.8 137.8C84.5 137.1 85 134.3 85 131.4V126.2L89.8 125C92.4 124.4 96.2 122.9 98.2 121.8L101.9 119.7L106 123.3C108.2 125.4 110.4 127 110.8 127C112.1 127 116.4 122.1 115.7 121.4C115.4 121 114 121.4 112.6 122.3C110.3 123.9 110.1 123.8 106.8 120.5C105 118.6 103.1 117 102.5 117C102 117 98.8 118.4 95.6 120C92.4 121.7 88.9 123 87.9 123C84.5 123 82 126.6 82 131.5V136.1L72.8 135.8L63.5 135.5L63.2 130.8C62.9 126 60.6 123 57.2 123C56.4 123 52.9 121.6 49.3 119.9C42.7 116.7 41.2 116.9 38.7 120.7C38.3 121.4 37.1 122.4 36.1 122.9C34.6 123.7 33.2 122.8 28.1 118C24.8 114.7 22 111.7 22 111.2C22 110.8 23.3 109.1 25 107.5C28.7 104 28.7 102.8 25.1 94.9C23.6 91.4 21.8 87.3 21.2 85.7C20.2 83.4 19.5 83 16.1 83C9.2 83 9 82.7 9 73.5C9 64.3 9.2 64 16.1 64C19.5 64 20.2 63.6 21.2 61.2C21.8 59.7 23.6 55.6 25.1 52.1C28.7 44.2 28.7 43 25 39.5C23.3 37.9 22 36.3 22 35.9C22 35.3 28.3 28.7 32.8 24.7C34.8 22.9 34.9 22.9 38.6 26.4C40.7 28.4 42.8 30 43.3 30C43.8 30 46 28.9 48.3 27.6C50.6 26.3 54.4 24.7 56.6 24.1C61.8 22.7 62.8 21.5 63.2 16L63.5 11.5L72.8 11.2L82 10.9V15.5C82 20.4 84.5 24 87.9 24C88.9 24 92.4 25.3 95.6 27C102.5 30.5 103.4 30.6 105.2 28.2C105.9 27.3 107.5 25.7 108.6 24.7C110.7 22.9 110.9 23 116.9 28.7C120.2 31.9 123 35 123 35.6C123 36.2 121.7 37.9 120 39.5C116.4 42.9 116.3 44.6 119.1 50C120.2 52.2 121.9 56.1 122.9 58.7L124.6 63.5L130 64L135.5 64.5V73.5V82.5L130 83L124.6 83.5L122.4 89.7C121.1 93.2 119.4 97 118.6 98.2C116.2 101.5 116.7 104.3 120 107.5C123.4 110.8 123.6 111.7 121.4 114.1C119.2 116.6 121.3 117.3 123.8 114.9C126.8 112.2 126.6 110.2 122.8 106.3C119.2 102.6 119.1 104 124.4 91.5L126.9 85.5L131.7 85.2C134.3 85 137 84.4 137.7 83.8C139.5 82.3 139.5 64.7 137.7 63.2C137 62.6 134.3 62 131.7 61.8L126.9 61.5L124.4 55.5C119.1 43 119.2 44.4 122.8 40.7C124.6 38.9 126 36.6 126 35.7C126 34.2 113.2 21 111 20.2C110.5 20 108.3 21.6 106 23.6L101.9 27.3L98.2 25.2C96.2 24.1 92.4 22.6 89.8 22L85 20.8V15.4C85 8.6 83.9 8 72.2 8C65.4 8 62.9 8.4 62 9.5Z" fill="black"/>
<path d="M63.3991 34.0019C56.9991 35.3019 50.2991 38.9019 44.6991 44.0019C39.6991 48.6019 34.9991 55.7019 34.9991 58.6019C34.9991 61.3019 36.6991 60.0019 38.4991 55.9019C40.3991 51.7019 50.1991 42.0019 54.7991 39.6019C63.9991 35.0019 80.2991 34.9019 89.5991 39.5019C117.899 53.3019 117.899 93.7019 89.5991 107.502C80.2991 112.002 63.9991 112.002 54.8991 107.402C53.3991 106.702 49.5991 103.702 46.3991 100.802C38.6991 93.7019 34.8991 85.5019 34.1991 74.7019C33.6991 66.6019 32.4991 64.7019 31.4991 70.3019C30.4991 75.2019 32.4991 84.3019 36.0991 91.6019C43.8991 107.402 61.0991 116.002 79.0991 113.302C87.4991 112.002 93.2991 109.202 99.5991 103.702C106.499 97.7019 110.799 90.3019 112.799 81.3019C114.299 74.3019 114.299 73.2019 112.799 66.0019C108.099 43.3019 86.6991 29.4019 63.3991 34.0019Z" fill="black"/>
<path d="M84.3978 55.9001C82.5978 57.0001 80.5978 58.8001 79.6978 60.0001C78.8978 61.2001 75.5978 64.8001 72.3978 68.2001C67.7978 73.0001 66.3978 73.9001 65.5978 72.8001C61.6978 67.7001 53.2978 66.3001 50.5978 70.2001C47.5978 74.5001 48.5978 77.7001 54.7978 84.2001C61.3978 91.2001 65.5978 93.5001 69.3978 92.0001C70.7978 91.5001 75.1978 87.6001 79.1978 83.3001C83.1978 79.0001 87.8978 74.1001 89.4978 72.5001C94.8978 67.2001 97.0978 63.3001 96.3978 60.6001C95.0978 55.1001 89.2978 52.9001 84.3978 55.9001ZM92.7978 61.1001C93.0978 64.5001 92.2978 65.6001 81.3978 77.4001C72.6978 86.7001 69.0978 90.0001 67.2978 90.0001C65.1978 90.0001 58.7978 85.1001 53.7978 79.6001C51.6978 77.4001 51.3978 73.0001 53.1978 71.2001C55.2978 69.1001 58.4978 69.9001 61.9978 73.5001C63.8978 75.4001 65.8978 77.0001 66.4978 77.0001C67.1978 77.0001 71.8978 72.5001 76.9978 67.0001C85.3978 58.0001 86.6978 56.9001 89.3978 57.2001C92.1978 57.5001 92.4978 57.9001 92.7978 61.1001Z" fill="black"/>
</svg>
