<svg width="147" height="147" viewBox="0 0 147 147" fill="none" xmlns="http://www.w3.org/2000/svg">
<path d="M74.0977 15.0029C72.9977 15.7029 72.4977 18.2029 72.2977 24.3029C71.7977 35.2029 72.6977 37.0029 78.6977 37.0029C82.6977 37.0029 83.7977 37.5029 88.0977 41.6029C90.7977 44.1029 93.4977 45.9029 93.9977 45.5029C94.5977 45.2029 95.0977 43.1029 95.0977 40.9029V37.0029H109.598C126.598 37.0029 126.098 37.3029 126.098 25.8029C126.098 13.5029 127.298 14.0029 99.2977 14.0029C86.0977 14.0029 74.8977 14.5029 74.0977 15.0029ZM123.098 25.4029C123.098 32.1029 122.798 33.9029 121.498 34.4029C120.598 34.7029 113.698 35.0029 105.998 35.0029H92.0977V37.5029C92.0977 38.9029 91.7977 40.0029 91.4977 40.0029C91.1977 40.0029 89.4977 38.9029 87.6977 37.5029C85.7977 36.1029 83.0977 35.0029 81.2977 35.0029C75.3977 35.0029 75.0977 34.6029 75.0977 25.4029V17.0029H99.0977H123.098V25.4029Z" fill="black"/>
<path d="M84.5976 26.0039C84.8976 26.5039 86.0976 27.0039 87.0976 27.0039C88.0976 27.0039 89.2976 26.5039 89.5976 26.0039C89.9976 25.4039 88.8976 25.0039 87.0976 25.0039C85.2976 25.0039 84.1976 25.4039 84.5976 26.0039Z" fill="black"/>
<path d="M96.6033 26.0039C96.9033 26.5039 98.1033 27.0039 99.2033 27.0039C100.203 27.0039 101.103 26.5039 101.103 26.0039C101.103 25.4039 99.9033 25.0039 98.5033 25.0039C97.1033 25.0039 96.2033 25.4039 96.6033 26.0039Z" fill="black"/>
<path d="M109.102 26.0039C109.102 26.5039 110.002 27.0039 111.102 27.0039C112.202 27.0039 113.102 26.5039 113.102 26.0039C113.102 25.4039 112.202 25.0039 111.102 25.0039C110.002 25.0039 109.102 25.4039 109.102 26.0039Z" fill="black"/>
<path d="M39.2 36.0039C33.2 38.3039 27.2 43.5039 25.4 47.9039C24.5 49.9039 23.5 54.0039 23.1 57.0039C22.6 60.0039 22 63.5039 21.6 64.7039C21.1 66.3039 21.6 67.6039 23.4 69.4039C24.8 70.8039 26.5 73.6039 27.3 75.6039C28 77.6039 30.1 80.9039 31.9 83.1039C34 85.6039 35 87.6039 34.7 88.7039C34.4 89.7039 30.4 92.3039 25.9 94.5039C15.2 99.7039 13.9 101.604 13.3 112.404L12.9 120.904L8.7 121.204L4.6 121.504L4.3 127.204L4 133.004H37.1C58.1 133.004 70.1 132.604 70.1 132.004C70.1 131.404 58.4 130.904 38.4 130.804L6.6 130.504V127.504V124.504L38.4 124.204C65.7 124.004 70.1 123.804 70.1 122.504C70.1 121.204 66.3 121.004 43.1 121.004H16.1V113.704C16.1 109.804 16.7 105.404 17.4 104.004C18.7 101.404 24.5 97.0039 26.7 97.0039C28.6 97.0039 28.5 103.704 26.6 105.604C22.9 109.304 26.4 114.904 31.6 113.604C35.1 112.704 35.7 109.304 33.1 105.904C31.6 103.704 31.1 101.804 31.3 98.7039C31.7 92.5039 34 92.7039 41.2 99.5039L47.2 105.204L49.8 102.904C51.3 101.604 53.8 99.0039 55.4 97.2039C57.6 94.8039 59.1 94.0039 61 94.2039C63.3 94.5039 63.6 95.0039 63.9 98.6039C64.2 102.104 63.9 102.804 61.7 103.804C58.1 105.404 56.8 114.004 60.2 114.004C60.7 114.004 61.1 112.404 61.1 110.504C61.1 106.904 63.3 104.804 66.1 105.804C68.2 106.504 69.1 108.104 69.1 111.204C69.1 112.804 69.6 114.004 70.1 114.004C70.7 114.004 71.1 112.204 71.1 110.104C71.1 107.104 70.5 105.704 68.6 104.204C65.5 101.804 65.1 97.0039 68 97.0039C69 97.0039 71.5 98.3039 73.6 100.004C77.5 103.104 79.1 103.704 79.1 102.104C79.1 100.404 72 95.2039 67.2 93.5039C62.2 91.6039 59.1 89.3039 59.1 87.5039C59.1 86.9039 60.3 85.3039 61.7 83.9039C63.1 82.6039 65.4 79.2039 66.8 76.5039C68.2 73.7039 70.2 70.7039 71.2 69.7039C73.2 67.8039 73.8 62.5039 72.1 61.5039C71.6 61.2039 71.1 57.6039 71.1 53.6039C71.1 46.0039 70.5 44.5039 65.9 41.7039C64.3 40.7039 63.1 39.3039 63.1 38.6039C63.1 34.0039 48.2 32.4039 39.2 36.0039ZM59.9 38.2039C60.6 38.9039 61.1 40.3039 61.1 41.5039C61.1 43.0039 62 43.9039 64.4 44.5039C67.6 45.5039 67.6 45.6039 67.9 52.2039C68.1 57.7039 67.9 59.0039 66.7 59.0039C65.8 59.0039 64.8 57.4039 64.1 55.0039C62.5 49.1039 59.7 47.6039 52.5 48.9039C49.3 49.5039 44.1 50.0039 40.8 50.0039C35.7 50.0039 34.6 50.4039 32 52.9039C30.4 54.5039 29.1 56.6039 29.1 57.4039C29.1 58.3039 28.4 59.0039 27.5 59.0039C26.1 59.0039 25.9 58.1039 26.3 53.9039C26.7 49.8039 27.5 48.2039 30.7 44.8039C36.3 39.0039 41 37.2039 50.7 37.1039C55.7 37.0039 59.2 37.5039 59.9 38.2039ZM59.9 52.2039C60.4 52.9039 61.5 55.4039 62.2 57.8039C63.2 61.4039 63.8 62.0039 65.5 61.6039C66.6 61.3039 68.1 61.6039 68.8 62.2039C70.7 63.7039 70.4 67.8039 68.3 68.9039C67.3 69.4039 65.9 71.6039 65.3 73.8039C64.6 76.0039 63.2 78.9039 62 80.4039C57.2 86.6039 46.3 88.9039 39.1 85.2039C35.2 83.3039 29.4 76.2039 28.4 72.2039C28.1 70.7039 26.9 68.9039 25.9 68.2039C23.9 66.7039 23.5 63.5039 25.2 62.4039C25.9 62.0039 27.6 61.7039 29 61.6039C31 61.5039 31.7 60.9039 31.9 59.0039C32.6 54.4039 34.8 53.0039 42 52.9039C45.6 52.8039 50 52.4039 51.6 52.0039C56.3 50.8039 58.8 50.9039 59.9 52.2039ZM57.1 90.4039C57.1 91.8039 49 101.004 47.8 101.004C46.4 101.004 37.1 91.9039 37.1 90.5039C37.1 89.8039 40.7 89.5039 47.1 89.5039C52.6 89.5039 57.1 89.9039 57.1 90.4039ZM31.9 109.304C32.1 110.404 31.6 111.004 30.2 111.004C27.9 111.004 26.7 109.504 27.6 107.904C28.6 106.404 31.5 107.304 31.9 109.304Z" fill="black"/>
<path d="M35.0995 64.5022C34.3995 65.3022 34.0995 66.7022 34.4995 67.6022C35.1995 69.4022 37.0995 68.6022 37.0995 66.4022C37.0995 64.5022 38.9995 64.6022 39.6995 66.5022C40.5995 68.6022 42.0995 68.4022 42.0995 66.1022C42.0995 63.0022 37.2995 61.9022 35.0995 64.5022Z" fill="black"/>
<path d="M53.3038 64.2039C51.9038 65.6039 51.7038 68.0039 53.1038 68.0039C53.6038 68.0039 54.5038 67.2039 55.0038 66.2039C56.0038 64.6039 56.2038 64.6039 57.6038 66.4039C59.4038 68.7039 61.0038 67.7039 59.5038 65.2039C58.1038 63.1039 55.0038 62.5039 53.3038 64.2039Z" fill="black"/>
<path d="M42.1016 77.5037C42.1016 81.0037 50.5016 81.3037 52.6016 78.0037C53.6016 76.4037 52.3016 75.4037 50.9016 76.8037C49.4016 78.3037 45.4016 78.4037 44.6016 77.0037C43.7016 75.5037 42.1016 75.8037 42.1016 77.5037Z" fill="black"/>
<path d="M97.3016 50.0039C93.0016 52.6039 90.1016 57.6039 90.1016 62.3039C90.1016 65.4039 89.7016 66.2039 87.7016 67.0039C86.3016 67.5039 84.4016 69.1039 83.5016 70.6039C81.9016 73.0039 81.9016 73.5039 83.2016 75.9039C84.0016 77.3039 85.9016 79.1039 87.4016 79.8039C89.0016 80.6039 90.1016 81.9039 90.1016 83.1039C90.1016 85.8039 93.0016 91.2039 95.2016 92.8039C96.3016 93.5039 97.1016 95.2039 97.1016 96.6039C97.1016 98.7039 95.9016 99.6039 88.9016 103.004C75.0016 109.804 74.1016 111.004 74.1016 123.704V133.004H108.102H142.102V124.504C142.102 111.604 140.602 109.204 128.602 103.504C117.602 98.2039 117.102 97.1039 122.602 90.7039C124.802 88.1039 126.102 85.6039 126.102 83.8039C126.102 82.0039 126.702 80.7039 127.902 80.3039C135.302 77.7039 136.102 69.6039 129.102 67.2039C126.402 66.2039 126.102 65.7039 126.102 61.9039C126.102 57.1039 122.802 51.9039 118.102 49.5039C113.702 47.2039 101.402 47.5039 97.3016 50.0039ZM117.502 52.2039C122.302 54.3039 123.502 57.6039 123.902 69.3039C124.402 82.8039 123.802 86.2039 120.002 90.0039C117.102 92.9039 116.602 93.0039 108.402 93.0039C100.102 93.0039 99.8016 92.9039 96.5016 89.6039L93.1016 86.2039V71.7039V57.2039L96.6016 54.1039C99.9016 51.2039 100.702 51.0039 107.602 51.0039C111.702 51.0039 116.102 51.5039 117.502 52.2039ZM131.102 73.0039C131.102 75.2039 128.302 78.3039 127.002 77.5039C126.002 76.8039 125.802 70.7039 126.702 69.7039C127.902 68.6039 131.102 71.0039 131.102 73.0039ZM90.1016 73.5039C90.1016 76.3039 89.7016 77.0039 88.1016 77.0039C87.1016 77.0039 85.8016 76.2039 85.2016 75.3039C84.0016 73.0039 85.6016 70.0039 88.1016 70.0039C89.7016 70.0039 90.1016 70.7039 90.1016 73.5039ZM116.802 97.6039C118.202 101.204 115.802 102.504 108.002 102.504H100.602L100.302 99.2039L100.002 96.0039H108.102C114.602 96.0039 116.302 96.3039 116.802 97.6039ZM108.402 106.004C112.702 106.004 115.102 105.504 117.102 104.004L119.802 102.104L128.002 106.104C138.502 111.204 140.202 113.804 139.902 123.504L139.602 130.504H133.602H127.602L127.302 123.204C127.002 114.604 125.102 113.504 125.102 121.904C125.102 131.504 126.102 131.004 108.002 131.004H92.1016V123.504C92.1016 117.604 91.8016 116.004 90.6016 116.004C89.5016 116.004 89.1016 117.704 88.9016 123.204L88.6016 130.504L82.9016 130.804L77.1016 131.104V122.804C77.1016 112.504 77.9016 111.404 88.4016 106.104L96.2016 102.104L99.4016 104.104C101.602 105.404 104.402 106.004 108.402 106.004Z" fill="black"/>
</svg>
