<svg width="147" height="147" viewBox="0 0 147 147" fill="none" xmlns="http://www.w3.org/2000/svg">
<path d="M71.5474 14.2765C69.7474 15.7765 68.7474 17.6765 68.7474 19.4765C68.7474 21.4765 67.0474 24.0765 62.8474 28.7765C58.6474 33.3765 57.2474 35.6764 57.9474 36.4764C59.3474 38.1764 60.7474 37.2765 65.7474 31.1765C68.1474 28.1765 70.4474 25.7765 70.8474 25.7765C71.2474 25.7765 73.2474 28.7765 75.3474 32.4765C77.4474 36.2765 80.6474 41.5764 82.4474 44.4764C84.2474 47.3764 85.7474 49.8764 85.7474 50.1764C85.7474 50.4764 88.4474 55.2764 91.7474 60.7764C95.0474 66.2764 97.7474 71.0764 97.7474 71.3764C97.7474 71.6764 98.7474 73.2764 99.8474 74.9764C101.047 76.5764 101.647 78.2764 101.147 78.7764C100.247 79.5764 88.0474 82.3764 72.7474 85.2764C68.0474 86.1764 62.9474 87.2764 61.2474 87.7764C59.6474 88.2764 55.9474 88.9764 53.2474 89.2764L48.2474 89.9764L45.9474 85.5764C44.7474 83.2764 41.9474 78.3764 39.7474 74.7764C37.6474 71.1764 35.8474 67.3764 35.8474 66.2764C35.7474 65.1764 38.2474 61.6764 41.2474 58.4764C44.2474 55.2764 46.7474 52.1764 46.7474 51.6764C46.7474 48.9764 42.5474 51.5764 36.9474 57.6764C33.0474 61.9764 27.8474 66.2764 23.4474 68.8764C15.9474 73.2764 14.0474 75.1764 12.0474 80.2764C9.14739 87.8764 12.4474 96.6764 19.7474 100.576C23.5474 102.576 25.1474 102.876 30.5474 102.376C33.9474 102.076 36.7474 102.176 36.7474 102.576C36.7474 102.976 38.0474 104.876 39.6474 106.776C41.8474 109.376 43.3474 110.176 45.8474 110.276C48.9474 110.276 49.4474 110.876 54.3474 119.276C57.2474 124.276 60.5474 129.976 61.7474 132.076C64.1474 136.476 66.1474 136.776 71.5474 133.476C73.6474 132.276 76.2474 130.776 77.2474 130.176C80.5474 128.376 80.1474 125.376 76.0474 121.076C73.9474 118.876 71.0474 114.676 69.4474 111.676C67.9474 108.676 65.9474 105.076 65.0474 103.576C63.4474 101.076 63.4474 100.776 65.1474 98.8764C66.2474 97.6764 66.7474 95.7764 66.5474 93.6764L66.2474 90.3764L77.2474 88.1764C83.3474 86.8764 91.4474 85.1764 95.2474 84.2764C100.847 82.9764 102.947 82.9764 105.947 83.8764C110.747 85.3764 113.847 84.4764 116.047 80.8764L117.847 77.8764L111.647 67.0764C108.247 61.1764 103.847 53.3764 101.747 49.7764C99.7474 46.1764 97.1474 41.6764 96.0474 39.7764C94.9474 37.8764 92.5474 33.5765 90.7474 30.2765C80.6474 11.8765 77.3474 9.17645 71.5474 14.2765ZM79.3474 18.4765C80.4474 20.0765 83.1474 24.3765 85.2474 28.2765C87.3474 32.0765 91.0474 38.5764 93.4474 42.4764C95.8474 46.4764 97.7474 49.9764 97.7474 50.3764C97.7474 50.6764 98.5474 52.1764 99.6474 53.5764C101.647 56.3764 104.047 60.5764 108.947 69.7764C110.647 72.7764 112.447 75.8764 112.947 76.4764C114.247 78.0764 112.247 80.7764 109.647 80.7764C107.647 80.7764 105.547 78.0764 101.047 69.7764C99.4474 66.7764 96.2474 61.1764 93.9474 57.3764C91.6474 53.6764 89.7474 50.3764 89.7474 50.0764C89.7474 49.7764 87.0474 45.0764 83.7474 39.5764C80.4474 34.1764 77.7474 29.2765 77.7474 28.7765C77.7474 28.2765 77.1474 27.2765 76.5474 26.5765C71.6474 21.2765 71.5474 16.1765 76.3474 15.8765C76.8474 15.7765 78.2474 16.9765 79.3474 18.4765ZM35.0474 73.9764C36.5474 76.8764 39.3474 81.8764 41.2474 85.1764C43.1474 88.3764 44.7474 91.2764 44.7474 91.6764C44.7474 91.9764 43.0474 93.1764 41.0474 94.2764C38.9474 95.2764 36.4474 96.8764 35.4474 97.6764C34.3474 98.5764 31.5474 99.1764 28.2474 99.1764C23.2474 99.2764 22.4474 98.9764 19.0474 95.4764C15.5474 92.0764 15.2474 91.2764 15.2474 86.3764C15.2474 82.3764 15.8474 80.1764 17.3474 78.0764C19.4474 75.3764 29.2474 68.7764 31.2474 68.7764C31.8474 68.7764 33.5474 71.1764 35.0474 73.9764ZM62.2474 94.6764C62.2474 97.1764 60.4474 98.4764 49.3474 104.376C44.6474 106.876 44.4474 106.876 42.7474 105.076C39.1474 101.376 39.4474 99.4764 44.0474 96.7764C48.6474 93.9764 55.8474 91.8764 59.7474 92.0764C61.6474 92.2764 62.2474 92.7764 62.2474 94.6764ZM65.9474 112.376C68.8474 117.676 72.2474 122.976 73.4474 124.176L75.6474 126.476L72.9474 128.476C71.4474 129.576 69.2474 130.776 68.1474 131.176C65.7474 131.876 64.8474 130.776 59.5474 120.876C57.8474 117.776 55.9474 114.576 55.3474 113.776C53.9474 111.876 51.7474 107.976 51.7474 107.276C51.7474 106.776 58.8474 102.876 59.9474 102.776C60.3474 102.776 62.9474 107.076 65.9474 112.376Z" fill="black"/>
<path d="M108.547 17.9773C103.847 25.0773 101.547 31.7773 103.747 31.7773C104.747 31.7773 112.747 18.5773 112.747 16.8773C112.747 14.9773 110.047 15.6773 108.547 17.9773Z" fill="black"/>
<path d="M130.75 25.1773C130.75 26.1773 131.65 26.7773 132.85 26.7773C135.25 26.7773 134.95 24.4773 132.45 23.9773C131.45 23.7773 130.75 24.2773 130.75 25.1773Z" fill="black"/>
<path d="M116.749 32.6773C112.049 35.3773 108.149 38.2773 107.949 39.1773C107.449 41.5773 108.849 41.1773 117.049 36.7773C125.149 32.3773 127.649 30.2773 126.149 28.7773C125.649 28.2773 121.749 29.8773 116.749 32.6773Z" fill="black"/>
<path d="M51.1438 43.178C50.7437 44.078 50.7437 45.178 51.1438 45.478C51.4438 45.878 52.3438 45.578 52.9438 44.978C53.8438 44.078 53.8438 43.478 52.9438 42.578C52.0438 41.678 51.6438 41.878 51.1438 43.178Z" fill="black"/>
<path d="M114.75 48.2773C114.75 49.4773 116.15 49.7773 122.35 49.7773C127.95 49.7773 129.85 49.4773 129.55 48.4773C129.25 47.6773 126.55 47.1773 121.95 46.9773C115.95 46.7773 114.75 46.9773 114.75 48.2773Z" fill="black"/>
</svg>
